<?xml version="1.0" standalone="no"?>
<!DOCTYPE svg PUBLIC "-//W3C//DTD SVG 20010904//EN"
 "http://www.w3.org/TR/2001/REC-SVG-20010904/DTD/svg10.dtd">
<svg version="1.0" xmlns="http://www.w3.org/2000/svg"
 width="300.000000pt" height="300.000000pt" viewBox="0 0 300.000000 300.000000"
 preserveAspectRatio="xMidYMid meet">

<g transform="translate(0.000000,300.000000) scale(0.100000,-0.100000)"
fill="#000000" stroke="none">
<path d="M277 2989 c-103 -24 -197 -103 -244 -204 l-28 -60 0 -1225 0 -1225
26 -56 c51 -107 138 -180 248 -205 83 -20 2359 -20 2442 0 138 32 238 135 268
274 17 83 15 2358 -3 2433 -25 110 -98 197 -205 248 l-56 26 -1205 2 c-680 0
-1221 -3 -1243 -8z m1065 -859 c144 -192 265 -350 269 -350 4 0 153 157 331
350 l323 349 88 1 c48 0 87 -2 87 -5 0 -15 -825 -895 -839 -895 -10 0 -129
150 -301 380 l-283 380 -139 0 c-76 0 -138 -2 -138 -5 0 -3 158 -216 350 -474
193 -258 350 -473 350 -478 0 -5 -30 -38 -67 -74 -38 -36 -219 -228 -403 -427
l-334 -362 -83 0 c-46 0 -83 4 -83 9 0 6 178 202 395 436 217 235 395 431 395
436 0 4 -178 246 -395 536 -217 290 -395 531 -395 535 0 5 137 8 305 8 l306 0
261 -350z"/>
</g>
</svg>
